# xmcd
# Copyright (C) 1995-1998 Ti Kan
#
# Track frame offsets:
#       150
#       18850
#       38933
#       56620
#       76535
#       93156
#       113465
#       130186
#       149374
#       167205
#       185803
#       197236
#       212581
#       227164
#       245393
#       263115
#       281033
#       295016
#       312315
#       338103
#
# Disc length: 4749 seconds
#
# Revision: 0
# Processed by: cddbd v1.5.2PL0 Copyright (c) Steve Scherf et al.
# Submitted via: CD-Transfer v1.0
#
DISCID=1b128b14
DTITLE=Velvet Revolver - 
DYEAR=1900
DGENRE=
TTITLE0=Sliver
TTITLE1=Sucker Train Blues
TTITLE2=Do It For The Kids
TTITLE3=Big Machine
TTITLE4=Spectacle
TTITLE5=Fall To Pieces
TTITLE6=Headspace
TTITLE7=Superhuman
TTITLE8=Dirty Little Thing
TTITLE9=Set Me Free
TTITLE10=Let It Roll
TTITLE11=She Mine
TTITLE12=Get Out The Door
TTITLE13=The Last Fight
TTITLE14=American Man
TTITLE15=Just Sixteen
TTITLE16=Spay
TTITLE17=Come On, Come In
TTITLE18=Loving The Alien
TTITLE19=She Builds Quick Machines
EXTD=
EXTT0=
EXTT1=
EXTT2=
EXTT3=
EXTT4=
EXTT5=
EXTT6=
EXTT7=
EXTT8=
EXTT9=
EXTT10=
EXTT11=
EXTT12=
EXTT13=
EXTT14=
EXTT15=
EXTT16=
EXTT17=
EXTT18=
EXTT19=
PLAYORDER=
